<?xml version="1.0" encoding="utf-8"?>
<svg viewBox="218.857 -55.34 319.933 353.163" xmlns="http://www.w3.org/2000/svg">
  <path d="M 536.823 120.323 C 540.623 129.123 538.823 139.323 532.223 146.323 L 396.223 290.323 C 391.723 295.123 385.423 297.823 378.823 297.823 C 372.223 297.823 365.923 295.123 361.423 290.323 L 225.423 146.323 C 218.823 139.323 217.023 129.123 220.823 120.323 C 224.623 111.523 233.223 105.823 242.823 105.823 L 308.427 105.823 L 308.427 -23.34 C 308.427 -41.04 322.727 -55.34 340.427 -55.34 L 416.153 -55.34 C 433.853 -55.34 448.153 -41.04 448.153 -23.34 L 448.153 105.823 L 514.823 105.823 C 524.423 105.823 533.023 111.523 536.823 120.323 Z"/>
</svg>